<?xml version="1.0" encoding="UTF-8" standalone="no"?>
<svg
   xmlns:dc="http://purl.org/dc/elements/1.1/"
   xmlns:cc="http://creativecommons.org/ns#"
   xmlns:rdf="http://www.w3.org/1999/02/22-rdf-syntax-ns#"
   xmlns:svg="http://www.w3.org/2000/svg"
   xmlns="http://www.w3.org/2000/svg"
   xmlns:sodipodi="http://sodipodi.sourceforge.net/DTD/sodipodi-0.dtd"
   xmlns:inkscape="http://www.inkscape.org/namespaces/inkscape"
   viewBox="0 0 3558.2388 771.20782"
   id="svg2"
   version="1.1"
   inkscape:version="0.91 r13725"
   sodipodi:docname="logo.svg"
   width="3558.2388"
   height="771.20782">
  <metadata
     id="metadata10">
    <rdf:RDF>
      <cc:Work
         rdf:about="">
        <dc:format>image/svg+xml</dc:format>
        <dc:type
           rdf:resource="http://purl.org/dc/dcmitype/StillImage" />
        <dc:title></dc:title>
      </cc:Work>
    </rdf:RDF>
  </metadata>
  <defs
     id="defs8">
    <marker
       inkscape:isstock="true"
       style="overflow:visible"
       id="marker8454"
       refX="0"
       refY="0"
       orient="auto"
       inkscape:stockid="Arrow1Mend">
      <path
         inkscape:connector-curvature="0"
         transform="matrix(-0.4,0,0,-0.4,-4,0)"
         style="fill:#1b1e2e;fill-opacity:1;fill-rule:evenodd;stroke:#1b1e2e;stroke-width:1pt;stroke-opacity:1"
         d="M 0,0 5,-5 -12.5,0 5,5 0,0 Z"
         id="path8456" />
    </marker>
    <marker
       inkscape:isstock="true"
       style="overflow:visible"
       id="marker7644"
       refX="0"
       refY="0"
       orient="auto"
       inkscape:stockid="Arrow1Mend">
      <path
         inkscape:connector-curvature="0"
         transform="matrix(-0.4,0,0,-0.4,-4,0)"
         style="fill:#1b1e2e;fill-opacity:1;fill-rule:evenodd;stroke:#1b1e2e;stroke-width:1pt;stroke-opacity:1"
         d="M 0,0 5,-5 -12.5,0 5,5 0,0 Z"
         id="path7646" />
    </marker>
  </defs>
  <sodipodi:namedview
     pagecolor="#ffffff"
     bordercolor="#666666"
     borderopacity="1"
     objecttolerance="10"
     gridtolerance="10"
     guidetolerance="10"
     inkscape:pageopacity="0"
     inkscape:pageshadow="2"
     inkscape:window-width="1920"
     inkscape:window-height="1137"
     id="namedview6"
     showgrid="false"
     showguides="true"
     inkscape:guide-bbox="true"
     inkscape:zoom="0.23046875"
     inkscape:cx="1555.1981"
     inkscape:cy="-34.142337"
     inkscape:window-x="1912"
     inkscape:window-y="0"
     inkscape:window-maximized="1"
     inkscape:current-layer="svg2"
     fit-margin-top="0"
     fit-margin-left="0"
     fit-margin-right="0"
     fit-margin-bottom="0">
    <sodipodi:guide
       position="1691.0044,132.75409"
       orientation="0,1"
       id="guide4239" />
    <sodipodi:guide
       position="1691.7502,132.58884"
       orientation="1,0"
       id="guide4241" />
    <sodipodi:guide
       position="1032.9978,386.7354"
       orientation="0,1"
       id="guide4196" />
    <sodipodi:guide
       position="1775.4839,297.7598"
       orientation="1,0"
       id="guide4198" />
  </sodipodi:namedview>
  <rect
     style="opacity:1;fill:#dcf2e1;fill-opacity:1;fill-rule:nonzero;stroke:#000000;stroke-width:10;stroke-linecap:butt;stroke-linejoin:miter;stroke-miterlimit:4;stroke-dasharray:none;stroke-dashoffset:0;stroke-opacity:1"
     id="rect4178"
     width="3548.2388"
     height="761.20782"
     x="5"
     y="5" />
  <!--! Font Awesome Pro 6.3.0 by @fontawesome - https://fontawesome.com License - https://fontawesome.com/license (Commercial License) Copyright 2023 Fonticons, Inc. -->
  <path
     d="m 1995.2502,150.95797 c 0,-4.4 3.6,-8 8,-8 l 144,0 c 22.1,0 40,17.9 40,40 l 0,120 c 0,4.4 -3.6,8 -8,8 l -64,0 c -4.4,0 -8,3.6 -8,8 l 0,24 c 0,13.3 -10.7,24 -24,24 -13.3,0 -24,-10.7 -24,-24 l 0,-24 c 0,-4.4 -3.6,-8 -8,-8 l -48,0 c -4.4,0 -8,-3.6 -8,-8 l 0,-24 c 0,-4.4 3.6,-8 8,-8 l 16,0 c 22.1,0 40,-17.9 40,-40 0,-22.1 -17.9,-40 -40,-40 l -16,0 c -4.4,0 -8,-3.6 -8,-8 l 0,-32 z m 8,-24 c -13.3,0 -24,10.7 -24,24 l 0,32 c 0,13.3 10.7,24 24,24 l 16,0 c 13.3,0 24,10.7 24,24 0,13.3 -10.7,24 -24,24 l -16,0 c -13.3,0 -24,10.7 -24,24 l 0,24 c 0,13.3 10.7,24 24,24 l 40,0 0,16 c 0,22.1 17.9,40 40,40 22.1,0 40,-17.9 40,-40 l 0,-16 56,0 c 13.3,0 24,-10.7 24,-24 l 0,-120 c 0,-30.9 -25.1,-56 -56,-56 l -144,0 z m -256,64 c -30.9,0 -56,25.1 -56,56 l 0,168 0,168 c 0,30.9 25.1,56 56,56 l 168,0 168,0 c 30.9,0 56,-25.1 56,-56 l 0,-152 c 0,-13.3 -10.7,-24 -24,-24 l -56,0 c -13.3,0 -24,10.7 -24,24 l 0,16 c 0,13.3 -10.7,24 -24,24 -13.3,0 -24,-10.7 -24,-24 l 0,-16 c 0,-13.3 -10.7,-24 -24,-24 l -40,0 0,-192 c 0,-13.3 -10.7,-24 -24,-24 l -152,0 z m 160,24 0,192 -40,0 c -4.4,0 -8,-3.6 -8,-8 l 0,-16 c 0,-22.1 -17.9,-40 -40,-40 -22.1,0 -40,17.9 -40,40 l 0,16 c 0,4.4 -3.6,8 -8,8 l -64,0 0,-160 c 0,-22.1 17.9,-40 40,-40 l 152,0 c 4.4,0 8,3.6 8,8 z m -136,208 c 13.3,0 24,-10.7 24,-24 l 0,-16 c 0,-13.3 10.7,-24 24,-24 13.3,0 24,10.7 24,24 l 0,16 c 0,13.3 10.7,24 24,24 l 40,0 0,40 c 0,4.4 -3.6,8 -8,8 l -16,0 c -22.1,0 -40,17.9 -40,40 0,22.1 17.9,40 40,40 l 16,0 c 4.4,0 8,3.6 8,8 l 0,64 -160,0 c -22.1,0 -40,-17.9 -40,-40 l 0,-160 64,0 z m 152,136 c 0,-13.3 -10.7,-24 -24,-24 l -16,0 c -13.3,0 -24,-10.7 -24,-24 0,-13.3 10.7,-24 24,-24 l 16,0 c 13.3,0 24,-10.7 24,-24 l 0,-40 40,0 c 4.4,0 8,3.6 8,8 l 0,16 c 0,22.1 17.9,40 40,40 22.1,0 40,-17.9 40,-40 l 0,-16 c 0,-4.4 3.6,-8 8,-8 l 56,0 c 4.4,0 8,3.6 8,8 l 0,152 c 0,22.1 -17.9,40 -40,40 l -160,0 0,-64 z"
     id="path4"
     style="fill:#1b1e2e;fill-opacity:1;stroke:#1b1e2e;stroke-width:5;stroke-miterlimit:4;stroke-dasharray:none;stroke-opacity:1"
     inkscape:connector-curvature="0" />
  <style
     id="style4139"
     type="text/css">
	.st0{fill:#69D3A7;}
	.st1{fill:url(#SVGID_1_);}
	.st2{fill:#1B1E2E;}
	.st3{fill:url(#SVGID_00000000930500662690563170000002800711718681554086_);}
</style>
  <g
     id="g4141"
     transform="matrix(0.53787163,0,0,0.53787163,162.16209,125.18299)">
    <path
       id="path4143"
       d="M 23.9,605.3 C 12.7,564.5 7,522 7,479.3 7,284.1 129.6,105.6 312,35.2 l 24,61.9 C 178.9,157.7 73.4,311.3 73.4,479.3 c 0,36.8 4.9,73.3 14.5,108.5 l -64,17.5 z"
       class="st0"
       inkscape:connector-curvature="0"
       style="fill:#69d3a7" />
    <linearGradient
       gradientTransform="matrix(1,0,0,-1,0,-3642.9656)"
       y2="-4002.4763"
       x2="796.93573"
       y1="-3615.3235"
       x1="434.70731"
       gradientUnits="userSpaceOnUse"
       id="SVGID_1_">
      <stop
         id="stop4146"
         style="stop-color:#58D09E"
         offset="9.390000e-02" />
      <stop
         id="stop4148"
         style="stop-color:#58D09E;stop-opacity:0"
         offset="0.9883" />
    </linearGradient>
    <path
       id="path4150"
       d="m 848.9,290.7 c -71,-136.3 -210.8,-221 -364.7,-221 -54.5,0 -107.5,10.5 -157.4,31.1 L 301.3,39.5 C 359.3,15.5 420.8,3.3 484.2,3.3 663,3.3 825.3,101.6 907.8,260 l -58.9,30.7 z"
       class="st1"
       inkscape:connector-curvature="0"
       style="fill:url(#SVGID_1_)" />
    <path
       id="path4152"
       d="m 341.7,381.1 c 38.5,0 69.9,20.5 86,56.4 l 1.3,2.8 64.7,-22 -1.4,-3.3 c -25,-61 -82.7,-98.9 -150.6,-98.9 -47.7,0 -86.5,15.3 -118.5,46.7 -31.8,31.2 -48,70.4 -48,116.7 0,45.8 16.1,84.9 48,116 32,31.4 70.8,46.7 118.5,46.7 67.8,0 125.5,-37.9 150.6,-98.9 l 1.4,-3.3 -64.8,-22 -1.2,2.9 c -14.4,35.2 -46.6,56.3 -86,56.3 -26.8,0 -49.5,-9.4 -67.4,-27.8 -18.2,-18.7 -27.3,-42.2 -27.3,-69.8 0,-27.8 9,-50.9 27.3,-70.4 17.9,-18.8 40.6,-28.1 67.4,-28.1 z"
       class="st2"
       inkscape:connector-curvature="0"
       style="fill:#1b1e2e" />
    <path
       id="path4154"
       d="m 1138.8,362.8 c -29.8,-31 -67.1,-46.7 -110.8,-46.7 -43.4,0 -79.1,15.4 -106.2,45.9 l 0,-40 -69.9,0 0,434.3 69.9,0 0,-160.1 c 27.1,30.4 62.8,45.9 106.2,45.9 43.7,0 81,-15.7 110.8,-46.8 29.4,-31.2 44.2,-70.2 44.2,-115.9 0,-46.3 -14.8,-85.5 -44.2,-116.6 z M 1084,549.1 c -17.9,18.5 -40.6,27.8 -67.4,27.8 -27.2,0 -49.2,-9.1 -67.4,-27.8 -18.2,-18.7 -27.3,-42.2 -27.3,-69.8 0,-28.4 8.9,-51.5 27.3,-70.4 18.2,-18.8 40.2,-27.8 67.4,-27.8 26.8,0 49.5,9.4 67.4,27.8 18,18.6 26.7,41.6 26.7,70.4 0,28.4 -8.8,51.3 -26.7,69.8 z"
       class="st2"
       inkscape:connector-curvature="0"
       style="fill:#1b1e2e" />
    <path
       id="path4156"
       d="m 1296.8,359.4 0,-37.4 -69.9,0 0,314 69.9,0 0,-177.1 c 0,-28.4 11.4,-50.1 34,-64.5 22.4,-14.3 49.3,-17 82.2,-8 l 4.2,1.2 0,-67.2 -2.6,-0.6 c -44.2,-10.6 -88.5,4.6 -117.8,39.6 z"
       class="st2"
       inkscape:connector-curvature="0"
       style="fill:#1b1e2e" />
    <path
       id="path4158"
       d="m 1598.5,316 c -46.1,0 -85.1,15.7 -116.2,46.7 -31.4,31.4 -47.3,70.6 -47.3,116.7 0,45.8 16.1,84.9 48,116 32,31.4 70.8,46.7 118.5,46.7 64.6,0 120.2,-32.8 148.7,-87.8 l 1.6,-3.2 -59.1,-26.2 -1.4,2.8 c -17.1,33.1 -50,52.9 -87.9,52.9 -49.2,0 -86.8,-30 -97,-76.9 l 253.5,0 0.3,-3 c 5.5,-50.7 -7.6,-94.6 -38.7,-130.6 -31.1,-35.9 -72.5,-54.1 -123,-54.1 z m -90.1,131.7 c 12.4,-42.9 47.4,-70.3 90.1,-70.3 43.9,0 78.9,27.4 90.2,70.3 l -180.3,0 z"
       class="st2"
       inkscape:connector-curvature="0"
       style="fill:#1b1e2e" />
    <path
       id="path4160"
       d="m 1946.8,449.4 c -38.1,-7.1 -71,-13.4 -71,-39.9 0,-21 22.4,-35.7 54.4,-35.7 35.4,0 54.7,15.2 59.3,46.4 l 0.5,3.5 69.9,-14.6 -0.5,-3.2 c -9.4,-55.5 -58.9,-90 -129.1,-90 -35.3,0 -65.1,9.1 -88.7,27.1 -24.1,17.9 -36.3,41.2 -36.3,69.5 0,40.9 25.9,71.6 69.4,82.1 11.3,2.6 23.2,4.8 34.7,6.9 43.3,7.9 84.2,15.4 84.2,44.5 0,22.5 -26.1,38.1 -63.5,38.1 -38,0 -59,-15.2 -64.1,-46.5 l -0.6,-3.5 -69.8,14.6 0.6,3.2 c 10.2,56.3 60.2,89.9 133.9,89.9 37.4,0 69.5,-9.3 95.2,-27.7 25.7,-18.1 38.7,-41.5 38.7,-69.5 0.2,-73.1 -64.8,-85.4 -117.2,-95.2 z"
       class="st2"
       inkscape:connector-curvature="0"
       style="fill:#1b1e2e" />
    <path
       id="path4162"
       d="m 2249.6,449.4 c -38.1,-7.1 -71,-13.4 -71,-39.9 0,-21 22.4,-35.7 54.4,-35.7 35.4,0 54.7,15.2 59.3,46.4 l 0.5,3.5 69.9,-14.6 -0.5,-3.2 c -9.4,-55.5 -58.9,-90 -129.1,-90 -35.3,0 -65.1,9.1 -88.7,27.1 -24.1,17.9 -36.3,41.2 -36.3,69.5 0,40.9 25.9,71.6 69.4,82.1 11.3,2.6 23.2,4.8 34.7,6.9 43.3,7.9 84.2,15.4 84.2,44.5 0,22.5 -26.1,38.1 -63.5,38.1 -38,0 -59,-15.2 -64.1,-46.5 l -0.6,-3.5 -69.8,14.6 0.6,3.2 c 10.2,56.3 60.2,89.9 133.9,89.9 37.4,0 69.5,-9.3 95.3,-27.7 25.7,-18.1 38.7,-41.5 38.7,-69.5 0.1,-73.1 -65,-85.4 -117.3,-95.2 z"
       class="st2"
       inkscape:connector-curvature="0"
       style="fill:#1b1e2e" />
    <path
       id="path4164"
       d="M 746.8,322 654.6,555.3 561.9,322 486,322 616.1,640.4 523.5,864.9 589.9,878.1 818.6,322 l -71.8,0 z"
       class="st2"
       inkscape:connector-curvature="0"
       style="fill:#1b1e2e" />
    <linearGradient
       gradientTransform="matrix(1,0,0,-1,0,-3642.9656)"
       y2="-4522.8848"
       x2="693.94861"
       y1="-4338.6914"
       x1="1.9249001"
       gradientUnits="userSpaceOnUse"
       id="SVGID_00000024683404382376936930000002131722854989790107_">
      <stop
         id="stop4167"
         style="stop-color:#58D09E"
         offset="7.740000e-02" />
      <stop
         id="stop4169"
         style="stop-color:#1B1E2E"
         offset="0.7617" />
    </linearGradient>
    <path
       id="path4171"
       d="m 535.4,836 -16.2,39.1 c -3.2,7.7 -10.6,13 -18.8,13.4 -5.5,0.2 -11,0.4 -16.5,0.4 C 293.6,888.8 125.2,754.6 83.4,569.7 L 18.6,584.3 C 42,688 100.8,782.1 184.1,849.4 c 84.3,68 190.4,105.6 299,105.8 0.2,0 1,0 1,0 6.4,0 12.7,-0.2 19,-0.4 34.1,-1.4 64.5,-22.8 77.5,-54.4 L 601.7,849.2 535.4,836 Z"
       style="fill:url(#SVGID_00000024683404382376936930000002131722854989790107_)"
       inkscape:connector-curvature="0" />
  </g>
  <g
     transform="matrix(5.7819903,0,0,5.7819903,-1073.906,397.42692)"
     id="layer1"
     inkscape:label="Layer 1">
    <g
       transform="matrix(0.50055251,0,0,0.50055251,193.75051,4.739117)"
       id="g4372">
      <path
         d="m 944.60191,-43.51524 13.27415,19.01583 13.27412,-19.01583 13.10796,0 -19.32841,27.69226 21.11793,30.21011 -13.35779,0 -14.75137,-20.68108 -14.56396,20.68168 -13.02427,0 20.80561,-29.68997 -19.47397,-28.213 12.92,0 z m 85.92829,57.90297 -9.9662,-17.06147 c -0.6929,0.0601 -1.3876,0.0601 -2.08,0 l -12.9418,0 0,17.06147 -11.10926,0 0,-57.90356 24.05106,0 c 14.9182,0 23.4278,7.1783 23.4278,19.93231 0,9.11268 -4.0363,15.62486 -11.4641,18.7256 l 12.692,19.24565 -12.6089,0 z m -24.9667,-26.86084 13.0036,0 c 8.3223,0 12.8576,-3.53692 12.8576,-10.81957 0,-7.2815 -4.6184,-10.58913 -12.8576,-10.58913 l -13.0249,0 0,21.42983 0.018,0 z m 87.759,14.56422 -28.2547,0 -5.118,12.29662 -11.4222,0 25.3828,-57.90356 11.4428,0 25.0091,57.90356 -11.8799,0 -5.1599,-12.29662 z m -3.9537,-9.52904 -10.07,-24.42626 -10.4028,24.3635 20.4734,0.06 z m 45.773,2.74593 0,19.07913 -11.0481,0 0,-18.53793 -21.5539,-39.36444 11.2136,0 15.7294,27.21377 15.5002,-27.21377 11.1105,0 -20.9517,38.82386 z"
         id="path12"
         inkscape:connector-curvature="0"
         style="fill:#1b1e2e;fill-opacity:1" />
      <g
         id="g4316"
         transform="matrix(1.4408995,0,0,1.4408995,910.92184,-515.08693)">
        <path
           style="opacity:0.5;fill:#31b34b"
           inkscape:connector-curvature="0"
           id="path6"
           d="m 4.2073672,347.50865 -28.8786552,7.21936 -14.45969,54.09504 z" />
        <path
           style="fill:#31b34b"
           inkscape:connector-curvature="0"
           id="path10"
           d="m -53.5912,325.78738 0,36.20214 43.338343,-75.94128 z" />
        <path
           inkscape:connector-curvature="0"
           id="path4146"
           d="m -32.93285,325.78556 -20.658351,36.20215 0,0.0845 57.8032801,-14.56596 0.094101,0 -14.5539361,-21.70684 -22.685253,0 z"
           style="opacity:0.8;fill:#31b34b" />
      </g>
    </g>
  </g>
  <style
     type="text/css"
     id="style4137">
	.st0{fill:#69D3A7;}
	.st1{fill:url(#SVGID_1_);}
	.st2{fill:#FFFFFF;}
	.st3{fill:url(#SVGID_00000170257777503591623190000012030199007927980729_);}
</style>
  <style
     type="text/css"
     id="style4196">
	.st0{fill:#69D3A7;}
	.st1{fill:url(#SVGID_1_);}
	.st2{fill:#1B1E2E;}
	.st3{fill:url(#SVGID_00000000930500662690563170000002800711718681554086_);}
</style>
</svg>
